<svg version="1.1" id="Layer_1" xmlns="http://www.w3.org/2000/svg" xmlns:xlink="http://www.w3.org/1999/xlink" x="0px" y="0px"
	 width="100%" viewBox="0 0 512 512" enable-background="new 0 0 512 512" xml:space="preserve">
<path fill="#000000" opacity="1.000000" stroke="none" 
	d="
M472.468658,513.000000 
	C472.319885,512.640137 472.579865,512.056396 472.968231,511.952454 
	C493.780029,506.383331 506.549316,492.841034 512.668335,472.174103 
	C513.000000,485.593353 513.000000,499.186676 513.000000,513.000000 
	C499.646576,513.000000 486.291962,513.000000 472.468658,513.000000 
z"/>
<path fill="#000000" opacity="1.000000" stroke="none" 
	d="
M1.000000,471.468658 
	C1.901063,471.835754 2.123991,472.946075 2.432540,474.089020 
	C7.671251,493.494446 20.233614,505.721893 39.286499,511.554504 
	C40.069313,511.794128 40.834953,512.089844 41.804298,512.679688 
	C28.405777,513.000000 14.811556,513.000000 1.000000,513.000000 
	C1.000000,499.313202 1.000000,485.625275 1.000000,471.468658 
z"/>
<path fill="#000000" opacity="1.000000" stroke="none" 
	d="
M513.000000,42.531349 
	C511.565002,39.148102 510.346344,35.198460 508.657562,31.461246 
	C501.476929,15.570733 488.928223,6.133944 472.163635,1.344600 
	C485.594208,1.000000 499.188446,1.000000 513.000000,1.000000 
	C513.000000,14.686794 513.000000,28.374739 513.000000,42.531349 
z"/>
<path fill="#000000" opacity="1.000000" stroke="none" 
	d="
M41.531342,1.000000 
	C38.953949,3.447180 34.984413,3.568984 31.573839,5.158235 
	C17.564144,11.686442 7.969772,22.072544 3.227885,36.850780 
	C2.723317,38.423283 2.125274,39.965786 1.285298,41.761105 
	C1.000000,28.406666 1.000000,14.813334 1.000000,1.000000 
	C14.353423,1.000000 27.708054,1.000000 41.531342,1.000000 
z"/>
<path fill="#000000" opacity="1.000000" stroke="none" 
	d="
M454.479980,142.497101 
	C462.637146,133.664139 468.359039,123.436363 475.704071,114.426308 
	C477.882660,111.753799 480.006714,110.165428 483.659363,110.454597 
	C490.255280,110.976753 496.423767,112.832649 502.250244,115.788239 
	C507.278839,118.339073 508.690857,123.034073 506.271149,128.039627 
	C505.989288,128.622742 505.607605,129.601974 505.224487,129.625641 
	C498.745148,130.025772 498.442963,136.209961 495.854584,139.970245 
	C490.012878,148.456741 484.821899,157.391205 477.767029,165.640671 
	C472.712189,162.529083 468.654449,163.504578 464.558746,168.011963 
	C460.592041,172.377350 457.639252,177.340073 454.142822,181.964645 
	C447.196228,191.152679 444.557190,202.481354 438.537323,212.086243 
	C435.804565,216.446381 433.630341,221.007355 432.584503,226.530273 
	C441.181061,229.162247 450.488098,227.854614 459.414886,232.001068 
	C454.914154,235.049011 450.535065,234.819733 446.416168,235.158936 
	C441.779541,235.540787 437.087280,235.452133 432.428772,235.291122 
	C429.305237,235.183197 427.630554,236.355377 426.446411,239.292603 
	C421.103821,252.544540 418.711609,266.423889 417.326691,280.526031 
	C416.660553,287.308899 415.525269,294.023590 415.103149,300.853485 
	C414.366516,312.773163 414.113342,312.757507 417.935699,322.367004 
	C410.749512,324.676208 407.182434,322.684906 404.524933,315.922394 
	C399.778076,303.843262 400.748627,291.541962 402.147278,279.108856 
	C403.579681,266.375885 405.678406,253.771240 408.502747,241.277222 
	C408.820831,239.870178 408.677734,238.358887 408.779968,236.246246 
	C403.029633,236.246246 397.555603,236.561752 392.129333,236.186340 
	C376.644501,235.115082 361.359802,237.808868 345.964325,238.286591 
	C343.705902,238.356674 342.336243,239.431900 341.126434,241.229721 
	C335.926117,248.957626 332.006561,257.446777 327.081451,265.288055 
	C320.120728,276.370209 313.466888,287.651764 306.192963,298.570648 
	C298.808472,309.655518 290.301117,319.799957 282.720062,330.668976 
	C270.850952,347.685791 254.805878,359.992615 237.271439,370.594421 
	C232.005447,373.778381 226.712799,376.893219 221.726456,380.560699 
	C215.393402,385.218781 207.588028,386.238495 200.170502,388.020844 
	C195.003571,389.262421 189.723434,390.042328 184.482391,390.963226 
	C180.030670,391.745453 177.957016,390.214569 178.233215,385.809662 
	C178.880829,375.481110 182.363831,365.994354 187.609970,357.148895 
	C189.064865,354.695801 191.555634,353.213196 194.340088,353.562836 
	C202.236084,354.554199 209.476685,353.186157 216.200577,348.844879 
	C217.703125,347.874786 219.579224,347.454773 221.316513,346.882141 
	C226.405380,345.204773 228.962814,346.921600 229.320084,352.211060 
	C229.429947,353.837555 229.505737,355.466400 229.584808,356.874817 
	C232.153030,358.329285 233.824570,356.848114 235.517746,355.968964 
	C250.032242,348.433044 261.035522,336.865814 271.237000,324.459930 
	C291.833344,299.412964 308.680664,271.872650 324.538696,243.691147 
	C325.158508,242.589661 326.135162,241.518250 325.776306,239.592773 
	C320.130005,239.056274 314.494873,237.864868 309.724182,242.890244 
	C307.697601,245.025009 304.601166,245.001404 301.753540,245.242508 
	C285.288544,246.636688 269.791931,251.325333 255.144730,258.948334 
	C249.220932,262.031342 245.065811,266.463715 243.389465,273.056793 
	C242.905777,274.959106 242.495392,277.419891 240.029221,277.385681 
	C237.371628,277.348816 236.869324,274.785767 236.289566,272.709625 
	C233.587830,263.034882 238.331161,249.581894 246.363861,242.976700 
	C255.664017,235.329285 267.233063,233.990097 278.179077,230.665833 
	C290.236481,227.003998 302.425354,226.462280 314.826630,226.644684 
	C320.442841,226.727310 325.807953,223.901245 331.593201,224.805954 
	C333.006287,225.026917 334.108459,224.108261 334.654846,222.705521 
	C340.671570,207.258469 348.453827,192.292496 347.654877,174.989380 
	C347.618774,174.206848 347.540771,173.426239 347.439819,172.077484 
	C343.832977,175.575165 341.047272,178.939362 338.670685,183.371109 
	C336.712585,180.112320 338.278473,177.417114 338.763367,174.922516 
	C340.356537,166.726974 339.896484,158.646194 337.624847,150.727905 
	C336.478790,146.733063 336.296844,142.532349 337.338348,138.986908 
	C338.579712,134.761292 337.230316,132.560760 334.151764,130.540390 
	C340.548401,123.934113 357.330444,121.322601 364.981201,125.448326 
	C367.344055,126.722542 368.028748,128.760529 368.365234,131.173462 
	C371.176361,151.332108 369.038696,170.969162 362.266602,190.136230 
	C358.342133,201.243668 354.458679,212.365631 350.649048,223.218201 
	C351.712158,225.096008 353.186584,224.679840 354.442200,224.703842 
	C372.262756,225.044769 390.089844,225.174988 407.901276,225.774979 
	C412.946747,225.944931 415.171600,224.228729 416.783325,219.499039 
	C423.439240,199.967117 430.694946,180.654861 440.775421,162.550369 
	C444.672882,155.550537 449.064484,148.891113 454.479980,142.497101 
z"/>
<path fill="#000000" opacity="1.000000" stroke="none" 
	d="
M193.512909,156.498245 
	C201.061005,158.176331 208.311523,158.958420 215.586334,159.795410 
	C234.495377,161.970947 250.905655,169.905609 262.528931,185.041733 
	C272.283936,197.744965 265.537140,221.503204 251.275360,226.896469 
	C242.435776,230.239273 233.521103,232.890411 223.980698,234.051849 
	C217.793472,234.805069 211.258728,235.818039 205.388000,238.628922 
	C202.606186,239.960861 199.647995,240.383682 196.628281,240.234528 
	C190.511780,239.932419 184.534500,241.095612 177.732880,241.491333 
	C180.358246,244.438171 183.350830,245.521530 186.026291,246.888763 
	C195.997253,251.984268 199.633774,260.914703 198.587891,271.004486 
	C197.671860,279.841431 192.155991,286.776672 183.942444,291.143890 
	C176.278778,295.218750 167.807053,297.916443 159.543381,297.596313 
	C146.742599,297.100372 139.779938,305.105743 132.319656,312.792816 
	C127.930054,317.315857 128.172043,324.214020 125.247162,329.603943 
	C124.793419,330.440094 124.826271,331.540283 123.182777,332.575195 
	C120.281204,329.094879 119.374741,325.158081 119.940590,320.804626 
	C120.889778,313.501984 124.921898,307.898193 130.004929,302.871063 
	C137.534637,295.424133 146.567368,290.033356 155.281586,284.199097 
	C161.232071,280.215210 167.159866,276.196930 173.068207,272.150787 
	C175.140274,270.731781 177.007111,269.043945 178.384293,266.922424 
	C181.132248,262.689148 179.918732,259.795563 175.585602,257.182007 
	C165.323944,250.992584 154.161880,252.688370 143.106995,252.589828 
	C137.740692,252.542007 132.150757,252.520096 127.997971,247.774048 
	C125.035706,244.388641 120.963440,244.973831 118.563156,249.246750 
	C113.859772,257.619568 109.620071,266.281525 107.745575,275.783081 
	C105.331871,288.017822 103.681717,300.354919 103.221436,312.863068 
	C103.018250,318.384552 104.274879,323.212555 108.446426,327.759674 
	C101.851006,329.082733 97.434143,327.991180 93.982079,323.479034 
	C87.792114,315.388092 84.956703,305.734619 81.176712,296.518341 
	C80.643608,295.218536 80.998482,293.930481 81.465935,292.633148 
	C82.835686,288.831635 85.068001,285.219147 82.737877,280.848724 
	C81.872154,279.224976 83.928047,277.518494 84.368340,275.334900 
	C81.344757,274.256012 81.372406,271.652008 81.919495,269.027985 
	C82.425880,266.599152 82.913704,264.075165 83.981056,261.869568 
	C90.545380,248.304764 95.781563,234.146225 102.648552,220.712692 
	C110.676781,205.007507 122.075226,191.693970 132.562057,177.725967 
	C133.957199,175.867706 135.531448,174.132736 136.323807,171.881104 
	C121.703682,167.755524 49.480560,188.646576 44.409691,199.113571 
	C49.931442,198.411865 55.039310,197.762756 60.097279,197.119995 
	C60.791630,198.936783 59.435081,199.399414 58.573586,199.969406 
	C51.285603,204.791275 45.188480,210.955063 39.307396,217.308273 
	C36.684998,220.141190 33.865849,222.856781 30.685938,224.752609 
	C27.499140,226.652573 25.179888,228.270477 26.718630,232.405975 
	C17.430820,230.986771 8.817252,222.596634 7.478814,214.496506 
	C7.055142,211.932449 8.448592,210.403763 9.838346,208.767593 
	C17.728558,199.478378 27.585041,192.710968 38.137913,186.867111 
	C49.812630,180.401978 62.226898,175.485184 74.246567,169.741074 
	C74.992851,169.384430 75.816406,168.868866 76.577293,168.910889 
	C90.804436,169.696808 103.572411,163.247253 117.146492,160.862717 
	C121.333893,160.127136 125.677689,159.297623 129.764313,159.082199 
	C135.957520,158.755722 141.762115,156.228516 147.963531,156.667130 
	C151.339035,156.905884 153.005020,154.613449 154.624878,152.208313 
	C159.405930,145.109573 162.712799,144.589874 171.138641,147.402573 
	C178.697220,149.925781 185.373245,154.445648 193.512909,156.498245 
M144.597916,199.066895 
	C144.128906,199.754990 143.730545,200.506546 143.179092,201.120605 
	C140.201767,204.436066 140.647415,209.960892 137.648560,212.484039 
	C131.197037,217.912109 130.014832,226.029800 125.747993,232.500397 
	C123.309441,236.198410 126.016983,239.386749 130.573029,238.713181 
	C133.676559,238.254333 136.736588,237.309769 139.727097,236.314941 
	C148.056549,233.544113 156.152802,229.710907 164.682632,227.984161 
	C179.315521,225.021896 194.140839,222.855469 208.455948,218.586868 
	C220.512253,214.991837 232.583603,211.300888 241.065887,200.607529 
	C246.141525,194.208817 244.215347,183.107834 236.342117,180.665131 
	C231.346542,179.115250 226.747070,176.910843 222.243164,174.402359 
	C216.929138,171.442673 211.391342,169.413605 205.211288,169.308228 
	C195.819489,169.148071 186.626724,166.790588 177.178024,166.811798 
	C174.214355,166.818466 172.161774,167.340546 170.134293,169.374939 
	C161.061890,178.478378 152.695023,188.180344 144.597916,199.066895 
z"/>
</svg>